<svg width="56" height="56" viewBox="0 0 56 56" fill="none" xmlns="http://www.w3.org/2000/svg">
<ellipse cx="22.9631" cy="25.171" rx="22.9631" ry="23.172" fill="#FFF3D4"/>
<g opacity="0.7">
<path d="M49.1234 48.4482V33.9048C49.1232 33.4585 49.0165 33.0188 48.8123 32.6229C48.6081 32.227 48.3125 31.8865 47.9504 31.6303L35.3712 22.7474V20.6936H43.6226V12.3672H32.6208V22.7474L20.0416 31.6317C19.6796 31.8877 19.384 32.2279 19.1798 32.6236C18.9756 33.0192 18.8689 33.4587 18.8686 33.9048V48.4482H14.7429V51.2237H53.2491V48.4482H49.1234ZM35.3712 15.1426H40.8721V17.9181H35.3712V15.1426ZM21.619 33.9048L33.996 25.1621L46.373 33.9048V48.4482H35.3712V37.3463H32.6208V48.4482H21.619V33.9048Z" fill="#201907"/>
</g>
</svg>
