<svg width="56" height="56" viewBox="0 0 56 56" fill="none" xmlns="http://www.w3.org/2000/svg">
<ellipse cx="22.9631" cy="23.7392" rx="22.9631" ry="22.7392" fill="#FFF3D4"/>
<g opacity="0.7">
<path d="M16.3929 22.3163C16.3929 21.1605 16.8565 20.0521 17.6818 19.2349C18.5071 18.4176 19.6265 17.9585 20.7936 17.9585H47.1979C48.365 17.9585 49.4843 18.4176 50.3096 19.2349C51.1349 20.0521 51.5986 21.1605 51.5986 22.3163V29.1711C50.9354 28.5831 50.1953 28.0862 49.3982 27.6938V22.3163C49.3982 21.7384 49.1664 21.1842 48.7537 20.7756C48.3411 20.367 47.7814 20.1374 47.1979 20.1374H20.7936C20.21 20.1374 19.6504 20.367 19.2377 20.7756C18.8251 21.1842 18.5932 21.7384 18.5932 22.3163V39.7475C18.5932 40.3254 18.8251 40.8796 19.2377 41.2882C19.6504 41.6968 20.21 41.9264 20.7936 41.9264H36.7638C36.931 42.1726 37.1092 42.4123 37.2963 42.6432V44.1053H20.7936C19.6265 44.1053 18.5071 43.6462 17.6818 42.8289C16.8565 42.0117 16.3929 40.9032 16.3929 39.7475V22.3163Z" fill="#201907"/>
<path d="M52.6995 36.479C52.6995 38.5577 51.8611 40.4403 50.4991 41.8173V50.6419C50.4991 50.8442 50.4422 51.0425 50.3348 51.2146C50.2274 51.3868 50.0737 51.5258 49.8909 51.6163C49.7082 51.7068 49.5036 51.7451 49.3001 51.7269C49.0966 51.7088 48.9023 51.6348 48.7388 51.5134L45.6583 49.2256C45.4679 49.0842 45.2363 49.0077 44.9982 49.0077C44.7602 49.0077 44.5285 49.0842 44.3381 49.2256L41.2576 51.5134C41.0942 51.6348 40.8998 51.7088 40.6963 51.7269C40.4928 51.7451 40.2882 51.7068 40.1055 51.6163C39.9227 51.5258 39.769 51.3868 39.6616 51.2146C39.5542 51.0425 39.4973 50.8442 39.4973 50.6419V41.8173C38.6133 40.9239 37.9648 39.8289 37.609 38.6288C37.2531 37.4287 37.2008 36.1603 37.4566 34.9354C37.7125 33.7106 38.2686 32.5668 39.0761 31.605C39.8835 30.6432 40.9175 29.8928 42.0869 29.4199C43.2563 28.9471 44.5251 28.7663 45.7817 28.8936C47.0382 29.0208 48.2439 29.4522 49.2924 30.1496C50.3409 30.847 51.2001 31.7892 51.7943 32.8929C52.3884 33.9967 52.6993 35.2283 52.6995 36.479ZM44.9982 44.1052C43.8166 44.1052 42.6988 43.8437 41.6977 43.3709V47.9183L44.4327 46.2928C44.6036 46.1914 44.799 46.1379 44.9982 46.1379C45.1974 46.1379 45.3928 46.1914 45.5637 46.2928L48.2987 47.9183V43.3709C47.2675 43.8558 46.1399 44.1067 44.9982 44.1052ZM44.9982 41.9263C46.4571 41.9263 47.8563 41.3524 48.8879 40.3308C49.9195 39.3093 50.4991 37.9237 50.4991 36.479C50.4991 35.0343 49.9195 33.6488 48.8879 32.6273C47.8563 31.6057 46.4571 31.0318 44.9982 31.0318C43.5393 31.0318 42.1401 31.6057 41.1085 32.6273C40.0769 33.6488 39.4973 35.0343 39.4973 36.479C39.4973 37.9237 40.0769 39.3093 41.1085 40.3308C42.1401 41.3524 43.5393 41.9263 44.9982 41.9263Z" fill="#201907"/>
<path d="M22.9947 25.5846C22.9947 25.2956 23.1106 25.0185 23.3169 24.8142C23.5232 24.6099 23.8031 24.4951 24.0948 24.4951H43.898C44.1898 24.4951 44.4697 24.6099 44.676 24.8142C44.8823 25.0185 44.9982 25.2956 44.9982 25.5846C44.9982 25.8735 44.8823 26.1506 44.676 26.3549C44.4697 26.5592 44.1898 26.674 43.898 26.674H24.0948C23.8031 26.674 23.5232 26.5592 23.3169 26.3549C23.1106 26.1506 22.9947 25.8735 22.9947 25.5846Z" fill="#201907"/>
<path d="M24.0948 35.3896C23.8031 35.3896 23.5232 35.5044 23.3169 35.7087C23.1106 35.9131 22.9947 36.1902 22.9947 36.4791C22.9947 36.768 23.1106 37.0451 23.3169 37.2495C23.5232 37.4538 23.8031 37.5685 24.0948 37.5685H32.8963C33.188 37.5685 33.4679 37.4538 33.6742 37.2495C33.8805 37.0451 33.9964 36.768 33.9964 36.4791C33.9964 36.1902 33.8805 35.9131 33.6742 35.7087C33.4679 35.5044 33.188 35.3896 32.8963 35.3896H24.0948Z" fill="#201907"/>
</g>
</svg>
