<svg width="56" height="55" viewBox="0 0 56 55" fill="none" xmlns="http://www.w3.org/2000/svg">
<circle opacity="0.2" cx="22.9684" cy="23.4365" r="22.9594" fill="url(#paint0_linear)"/>
<path d="M16.3999 22.0001C16.3999 20.8331 16.8635 19.714 17.6887 18.8888C18.5138 18.0637 19.633 17.6001 20.7999 17.6001H47.1999C48.3669 17.6001 49.486 18.0637 50.3112 18.8888C51.1364 19.714 51.5999 20.8331 51.5999 22.0001V28.9213C50.9369 28.3276 50.1969 27.8259 49.3999 27.4297V22.0001C49.3999 21.4166 49.1682 20.857 48.7556 20.4445C48.343 20.0319 47.7834 19.8001 47.1999 19.8001H20.7999C20.2165 19.8001 19.6569 20.0319 19.2443 20.4445C18.8317 20.857 18.5999 21.4166 18.5999 22.0001V39.6001C18.5999 40.1836 18.8317 40.7432 19.2443 41.1557C19.6569 41.5683 20.2165 41.8001 20.7999 41.8001H36.7675C36.9347 42.0487 37.1129 42.2907 37.2999 42.5239V44.0001H20.7999C19.633 44.0001 18.5138 43.5365 17.6887 42.7114C16.8635 41.8862 16.3999 40.7671 16.3999 39.6001V22.0001Z" fill="#7D6C7C"/>
<path d="M52.6999 36.3C52.6999 38.3988 51.8617 40.2996 50.4999 41.69V50.6C50.4999 50.8042 50.443 51.0045 50.3356 51.1783C50.2282 51.352 50.0746 51.4925 49.8919 51.5838C49.7091 51.6752 49.5046 51.7139 49.3011 51.6955C49.0977 51.6772 48.9034 51.6025 48.7399 51.48L45.6599 49.17C45.4695 49.0271 45.2379 48.95 44.9999 48.95C44.7619 48.95 44.5303 49.0271 44.3399 49.17L41.2599 51.48C41.0965 51.6025 40.9022 51.6772 40.6987 51.6955C40.4953 51.7139 40.2907 51.6752 40.108 51.5838C39.9253 51.4925 39.7716 51.352 39.6642 51.1783C39.5568 51.0045 39.4999 50.8042 39.4999 50.6V41.69C38.6161 40.7879 37.9677 39.6823 37.6119 38.4705C37.256 37.2588 37.2037 35.9781 37.4595 34.7414C37.7153 33.5047 38.2714 32.3499 39.0788 31.3787C39.8861 30.4076 40.9199 29.6499 42.0891 29.1725C43.2583 28.6951 44.5269 28.5125 45.7833 28.641C47.0396 28.7695 48.2451 29.205 49.2934 29.9092C50.3418 30.6134 51.2008 31.5647 51.7949 32.6791C52.3889 33.7936 52.6997 35.0371 52.6999 36.3ZM44.9999 44C43.8185 44 42.7009 43.736 41.6999 43.2586V47.85L44.4345 46.2088C44.6054 46.1064 44.8008 46.0523 44.9999 46.0523C45.1991 46.0523 45.3945 46.1064 45.5653 46.2088L48.2999 47.85V43.2586C47.2688 43.7482 46.1414 44.0015 44.9999 44ZM44.9999 41.8C46.4586 41.8 47.8576 41.2205 48.889 40.189C49.9205 39.1576 50.4999 37.7586 50.4999 36.3C50.4999 34.8413 49.9205 33.4423 48.889 32.4109C47.8576 31.3794 46.4586 30.8 44.9999 30.8C43.5412 30.8 42.1423 31.3794 41.1108 32.4109C40.0794 33.4423 39.4999 34.8413 39.4999 36.3C39.4999 37.7586 40.0794 39.1576 41.1108 40.189C42.1423 41.2205 43.5412 41.8 44.9999 41.8Z" fill="#7D6C7C"/>
<path d="M22.9999 25.3002C22.9999 25.0085 23.1158 24.7287 23.3221 24.5224C23.5284 24.3161 23.8082 24.2002 24.0999 24.2002H43.8999C44.1917 24.2002 44.4715 24.3161 44.6778 24.5224C44.884 24.7287 44.9999 25.0085 44.9999 25.3002C44.9999 25.5919 44.884 25.8717 44.6778 26.078C44.4715 26.2843 44.1917 26.4002 43.8999 26.4002H24.0999C23.8082 26.4002 23.5284 26.2843 23.3221 26.078C23.1158 25.8717 22.9999 25.5919 22.9999 25.3002Z" fill="#7D6C7C"/>
<path d="M24.0999 35.2002C23.8082 35.2002 23.5284 35.3161 23.3221 35.5224C23.1158 35.7287 22.9999 36.0085 22.9999 36.3002C22.9999 36.5919 23.1158 36.8717 23.3221 37.078C23.5284 37.2843 23.8082 37.4002 24.0999 37.4002H32.8999C33.1917 37.4002 33.4715 37.2843 33.6778 37.078C33.884 36.8717 33.9999 36.5919 33.9999 36.3002C33.9999 36.0085 33.884 35.7287 33.6778 35.5224C33.4715 35.3161 33.1917 35.2002 32.8999 35.2002H24.0999Z" fill="#7D6C7C"/>
<defs>
<linearGradient id="paint0_linear" x1="10.7027" y1="-4.97472" x2="39.7239" y2="11.4482" gradientUnits="userSpaceOnUse">
<stop stop-color="#E7BE90"/>
<stop offset="1" stop-color="#E7BE90"/>
<stop offset="1" stop-color="#FEC253"/>
</linearGradient>
</defs>
</svg>
