<svg width="24" height="24" viewBox="0 0 24 24" fill="none" xmlns="http://www.w3.org/2000/svg">
<path d="M15.1001 1.30505C14.6963 0.891859 14.2141 0.56354 13.6816 0.339383C13.1492 0.115227 12.5773 -0.000244141 11.9996 -0.000244141C11.4219 -0.000244141 10.85 0.115227 10.3176 0.339383C9.78512 0.56354 9.30285 0.891859 8.89909 1.30505L7.96609 2.26205L6.63109 2.24555C6.05322 2.23871 5.47981 2.34749 4.94459 2.56548C4.40936 2.78348 3.92313 3.10629 3.51448 3.51494C3.10583 3.92359 2.78302 4.40982 2.56503 4.94504C2.34703 5.48026 2.23825 6.05367 2.24509 6.63155L2.26009 7.96655L1.30609 8.89955C0.892905 9.3033 0.564585 9.78557 0.340428 10.318C0.116272 10.8505 0.000801086 11.4223 0.000801086 12C0.000801086 12.5778 0.116272 13.1496 0.340428 13.6821C0.564585 14.2145 0.892905 14.6968 1.30609 15.1005L2.26159 16.0336L2.24509 17.3685C2.23825 17.9464 2.34703 18.5198 2.56503 19.0551C2.78302 19.5903 3.10583 20.0765 3.51448 20.4852C3.92313 20.8938 4.40936 21.2166 4.94459 21.4346C5.47981 21.6526 6.05322 21.7614 6.63109 21.7545L7.96609 21.7395L8.89909 22.6935C9.30285 23.1067 9.78512 23.4351 10.3176 23.6592C10.85 23.8834 11.4219 23.9988 11.9996 23.9988C12.5773 23.9988 13.1492 23.8834 13.6816 23.6592C14.2141 23.4351 14.6963 23.1067 15.1001 22.6935L16.0331 21.738L17.3681 21.7545C17.946 21.7614 18.5194 21.6526 19.0546 21.4346C19.5898 21.2166 20.0761 20.8938 20.4847 20.4852C20.8934 20.0765 21.2162 19.5903 21.4342 19.0551C21.6522 18.5198 21.7609 17.9464 21.7541 17.3685L21.7391 16.0336L22.6931 15.1005C23.1063 14.6968 23.4346 14.2145 23.6588 13.6821C23.8829 13.1496 23.9984 12.5778 23.9984 12C23.9984 11.4223 23.8829 10.8505 23.6588 10.318C23.4346 9.78557 23.1063 9.3033 22.6931 8.89955L21.7376 7.96655L21.7541 6.63155C21.7609 6.05367 21.6522 5.48026 21.4342 4.94504C21.2162 4.40982 20.8934 3.92359 20.4847 3.51494C20.0761 3.10629 19.5898 2.78348 19.0546 2.56548C18.5194 2.34749 17.946 2.23871 17.3681 2.24555L16.0331 2.26055L15.1001 1.30655V1.30505ZM15.5306 10.281L11.0306 14.781C10.9609 14.8509 10.8782 14.9063 10.787 14.9441C10.6959 14.9819 10.5982 15.0014 10.4996 15.0014C10.4009 15.0014 10.3033 14.9819 10.2121 14.9441C10.121 14.9063 10.0383 14.8509 9.96859 14.781L7.71859 12.531C7.64886 12.4613 7.59355 12.3785 7.55581 12.2874C7.51807 12.1963 7.49865 12.0987 7.49865 12C7.49865 11.9014 7.51807 11.8038 7.55581 11.7127C7.59355 11.6216 7.64886 11.5388 7.71859 11.469C7.78833 11.3993 7.87111 11.344 7.96222 11.3063C8.05333 11.2685 8.15098 11.2491 8.24959 11.2491C8.34821 11.2491 8.44586 11.2685 8.53697 11.3063C8.62808 11.344 8.71086 11.3993 8.78059 11.469L10.4996 13.1895L14.4686 9.21905C14.6094 9.07822 14.8004 8.9991 14.9996 8.9991C15.1988 8.9991 15.3898 9.07822 15.5306 9.21905C15.6714 9.35988 15.7505 9.55089 15.7505 9.75005C15.7505 9.94921 15.6714 10.1402 15.5306 10.281Z" fill="#101011"/>
</svg>
