<svg width="64" height="64" viewBox="0 0 64 64" fill="none" xmlns="http://www.w3.org/2000/svg">
<rect width="64" height="64" rx="32" fill="#DAA92F"/>
<g clip-path="url(#clip0)">
<path d="M34.9969 27.6554C35.3289 27.1508 35.5547 26.6476 35.5055 26.0593C35.3953 24.7617 34.4 23.875 33.0156 23.875C29.2135 23.8703 25.4133 23.8703 21.6148 23.875C21.4581 23.8729 21.3014 23.8823 21.1461 23.9031C19.4445 24.15 18.5953 25.9531 19.4852 27.4187C19.5297 27.4922 19.5633 27.575 19.6047 27.6586C19.4703 27.7554 19.3555 27.839 19.2398 27.9211C15.507 30.5773 13.1836 34.1489 12.2695 38.6359C12.1562 39.2046 12.0891 39.7843 12 40.3593V42.4687C12.1016 43.0562 12.1797 43.6484 12.3078 44.2296C12.9531 47.1562 14.7344 49.1414 17.4258 50.3593C19.8125 51.4453 22.3516 51.8007 24.9375 51.9335C25.2344 51.9484 25.5312 51.9773 25.8281 51.9999H28.7969C28.9531 51.9812 29.1039 51.9593 29.2586 51.9437C30.6414 51.8039 32.0289 51.696 33.407 51.5124C34.1438 51.4148 34.8633 51.1882 35.6016 51.0179C35.3672 49.6242 35.7078 48.4671 36.6172 47.4859C36.8148 47.2718 36.6305 47.1625 36.5211 47.0328C35.1859 45.4437 35.1734 43.3156 36.5141 41.757C36.7188 41.5179 36.7109 41.3789 36.5094 41.1453C35.1812 39.6015 35.1812 37.4461 36.5094 35.9047C36.7078 35.6703 36.7266 35.5351 36.5187 35.2929C35.0414 33.5742 35.2266 31.0976 36.9312 29.5976C37.0148 29.5242 37.1117 29.4648 37.2266 29.382C36.8133 29.0351 36.4734 28.7328 36.1148 28.4547C35.7563 28.1765 35.3781 27.9273 34.9969 27.6554Z" fill="white"/>
<path d="M20.989 21.518H33.6336C34.2406 19.6328 34.8601 17.7586 35.4437 15.8734C35.7031 15.0375 35.1437 14.3539 34.2406 14.3461C33.1867 14.3375 32.1312 14.3281 31.0789 14.3523C30.7304 14.3609 30.532 14.2742 30.4172 13.932C30.339 13.7062 30.1703 13.5063 30.0211 13.3109C29.4539 12.5703 28.6586 12.2133 27.7812 12H26.8437C26.7078 12.0406 26.5718 12.0844 26.4351 12.1211C25.3812 12.407 24.6078 13.0406 24.1476 14.0266C24.0273 14.2836 23.8898 14.3531 23.6242 14.35C22.5304 14.3359 21.4367 14.3359 20.3429 14.35C19.5031 14.3602 18.9281 15.0367 19.1617 15.8008C19.7484 17.7102 20.3765 19.6086 20.989 21.518Z" fill="white"/>
<path d="M50.2031 30.9063C46.6875 30.8993 43.1719 30.8923 39.6562 30.9204C39.2812 30.9204 38.8594 31.0883 38.5429 31.3024C37.9219 31.7219 37.7211 32.511 37.9562 33.2173C38.2008 33.9532 38.8523 34.4219 39.6953 34.4219C43.1849 34.4277 46.6745 34.4277 50.1641 34.4219C50.3328 34.4201 50.5007 34.3994 50.6648 34.3602C51.3891 34.1938 51.7586 33.6665 52.0008 33.0188V32.3157C51.693 31.4704 51.1516 30.9118 50.2031 30.9063Z" fill="white"/>
<path d="M50.2031 36.7657C46.6875 36.7587 43.1719 36.7516 39.6562 36.7798C39.2812 36.7798 38.8594 36.9477 38.5429 37.1618C37.9219 37.5813 37.7211 38.3704 37.9562 39.0766C38.2008 39.8126 38.8523 40.2813 39.6953 40.2813C43.1849 40.287 46.6745 40.287 50.1641 40.2813C50.3328 40.2795 50.5007 40.2588 50.6648 40.2196C51.3891 40.0532 51.7586 39.5258 52.0008 38.8782V38.1751C51.693 37.3298 51.1516 36.7712 50.2031 36.7657Z" fill="white"/>
<path d="M50.2031 42.6251C46.6875 42.618 43.1719 42.611 39.6562 42.6391C39.2812 42.6391 38.8594 42.8071 38.5429 43.0212C37.9219 43.4407 37.7211 44.2298 37.9562 44.936C38.2008 45.6719 38.8523 46.1407 39.6953 46.1407C43.1849 46.1464 46.6745 46.1464 50.1641 46.1407C50.3328 46.1389 50.5007 46.1182 50.6648 46.079C51.3891 45.9126 51.7586 45.3852 52.0008 44.7376V44.0344C51.693 43.1891 51.1516 42.6305 50.2031 42.6251Z" fill="white"/>
<path d="M49.7344 48.472C46.4703 48.5079 43.2063 48.4845 39.9414 48.4853C39.7852 48.4853 39.6289 48.4814 39.4727 48.4954C39.1138 48.5242 38.7726 48.6635 38.496 48.894C38.2194 49.1246 38.0211 49.4351 37.9281 49.7829C37.8307 50.123 37.8409 50.4848 37.9573 50.8188C38.0737 51.1528 38.2905 51.4427 38.5781 51.6486C38.7852 51.7954 39.0328 51.8829 39.2625 52.0001H50.5938C50.9263 51.9006 51.229 51.72 51.4744 51.4746C51.7199 51.2291 51.9005 50.9265 52 50.5939V49.8908C51.6313 48.8009 50.8414 48.4595 49.7344 48.472Z" fill="white"/>
</g>
<defs>
<clipPath id="clip0">
<rect width="40" height="40" fill="white" transform="translate(12 12)"/>
</clipPath>
</defs>
</svg>
