<svg width="64" height="64" viewBox="0 0 64 64" fill="none" xmlns="http://www.w3.org/2000/svg">
<rect width="64" height="64" rx="32" fill="#DAA92F"/>
<g clip-path="url(#clip0)">
<path d="M38.1097 34.573C36.4577 34.549 34.8036 34.5584 33.1505 34.573C32.1153 34.5803 31.3483 35.3411 31.3409 36.3294C31.3336 37.3177 32.1205 38.1035 33.1704 38.1035C34.3288 38.1108 35.4872 38.1035 36.6455 38.1035H37.0766V40.509C36.9263 40.509 36.799 40.509 36.6727 40.509C35.9307 40.5174 35.1793 40.4537 34.4498 40.5508C32.3063 40.8336 30.8525 42.5461 30.8379 44.7251C30.8379 45.2146 30.8379 45.704 30.8379 46.1862H28.542C28.2832 43.6711 28.7935 41.442 30.6657 39.8108L29.1045 37.7414C28.7059 37.7706 28.2122 37.8625 27.728 37.8238C27.2438 37.7852 26.7721 37.6151 26.2607 37.4982C25.8552 38.3657 25.1418 39.0515 24.2591 39.4226C23.3199 39.815 22.3671 39.79 21.4007 39.4539C21.3934 39.5499 21.3861 39.6011 21.3871 39.6512C21.3871 39.7816 21.3871 39.9121 21.4007 40.0415C21.5729 42.0755 22.2512 43.9174 23.4973 45.5391C24.0285 46.2311 24.5962 46.8958 25.1201 47.5909C25.2625 47.7828 25.345 48.0127 25.357 48.2515C25.3799 49.5038 25.3695 50.7498 25.3705 52H37.0098C37.0098 50.8156 37.0045 49.63 37.0254 48.4466C37.0345 48.2477 37.1111 48.0577 37.2425 47.9081C38.0774 47.0179 38.9425 46.1486 39.793 45.2699C40.6592 44.3755 41.2885 43.3278 41.3876 42.0848C41.4993 40.701 41.492 39.3037 41.4722 37.9105C41.4461 36.0142 40.0143 34.6023 38.1097 34.573Z" fill="white"/>
<path d="M42.7474 13.5049C42.6574 13.078 42.4226 12.6954 42.0828 12.4218C41.743 12.1482 41.3191 12.0004 40.8828 12.0035C40.4466 12.0065 40.0248 12.1603 39.6889 12.4386C39.353 12.717 39.1236 13.1029 39.0395 13.531C37.918 18.806 36.8003 24.0818 35.6864 29.3582C35.657 29.4513 35.6222 29.5426 35.5821 29.6316C35.5477 29.5272 35.532 29.4876 35.5247 29.45C34.4108 24.1736 33.2952 18.8975 32.1779 13.6218C31.9379 12.4832 30.9673 11.8164 29.9227 12.0449C28.829 12.2839 28.2279 13.2649 28.4616 14.417C29.3626 18.8231 30.2625 23.2288 31.1614 27.6342C31.4745 29.1849 31.7991 30.7357 32.1132 32.2656H39.0771C39.0917 32.2124 39.1084 32.1613 39.1188 32.1154C40.319 26.2462 41.5163 20.3759 42.7109 14.5047C42.7858 14.1767 42.7982 13.8375 42.7474 13.5049Z" fill="white"/>
<path d="M26.5216 34.4426C26.6212 34.7691 26.8289 35.0519 27.1105 35.2446C27.3922 35.4373 27.7311 35.5284 28.0714 35.5029C28.8082 35.4361 29.402 34.8768 29.4468 34.1463C29.4855 33.4982 29.4541 32.8459 29.4541 32.1958H29.4698C29.4698 31.6103 29.4813 31.0238 29.4698 30.4384C29.4479 29.4991 28.8238 28.8615 27.942 28.873C27.0601 28.8844 26.4559 29.5231 26.4507 30.4717C26.4458 31.6162 26.4458 32.761 26.4507 33.9062C26.4486 34.0875 26.4724 34.2681 26.5216 34.4426Z" fill="white"/>
<path d="M22.6812 37.3698C23.4399 37.4021 24.1714 36.8344 24.208 36.0496C24.2654 34.8558 24.2664 33.6556 24.208 32.4618C24.1683 31.6592 23.4263 31.1051 22.6426 31.1489C22.2619 31.1719 21.9041 31.3383 21.6413 31.6147C21.3785 31.891 21.2302 32.2568 21.2264 32.6381C21.2202 33.1714 21.2202 33.7068 21.2202 34.239C21.2202 34.7712 21.2097 35.3327 21.2202 35.8785C21.2243 36.2675 21.3786 36.6399 21.6509 36.9178C21.9232 37.1958 22.2923 37.3577 22.6812 37.3698Z" fill="white"/>
</g>
<defs>
<clipPath id="clip0">
<rect width="21.5597" height="40" fill="white" transform="translate(21.2202 12)"/>
</clipPath>
</defs>
</svg>
