<svg width="64" height="64" viewBox="0 0 64 64" fill="none" xmlns="http://www.w3.org/2000/svg">
<rect width="64" height="64" rx="32" fill="#DAA92F"/>
<g clip-path="url(#clip0_20:1646)">
<path d="M50.3927 28.3966C49.5348 28.4352 48.6748 28.408 47.8149 28.4039C47.2106 28.4039 46.8568 28.1294 46.6334 27.5689C46.2591 26.6296 45.8719 25.6948 45.4718 24.7646C45.2401 24.225 45.2912 23.7992 45.7087 23.3744C46.3568 22.7158 47.0164 22.0677 47.6677 21.4123C48.3377 20.737 48.3367 20.0555 47.6604 19.374C46.639 18.354 45.6172 17.3329 44.5951 16.3108C43.9532 15.6721 43.2529 15.6741 42.6121 16.3108C41.9713 16.9474 41.343 17.583 40.7053 18.2155C40.1835 18.7373 39.7858 18.7749 39.1221 18.4785C38.2454 18.0892 37.3541 17.7291 36.4596 17.3826C35.872 17.1551 35.5965 16.8159 35.5934 16.1876C35.5934 15.3151 35.5642 14.4426 35.6007 13.5711C35.633 12.8155 35.3565 12.2937 34.6551 12.0056H29.3428C28.6414 12.2958 28.3628 12.8176 28.3962 13.5711C28.4338 14.4416 28.4077 15.3151 28.4035 16.1876C28.4035 16.7909 28.1311 17.1447 27.5685 17.3691C26.6292 17.7455 25.6941 18.1327 24.7631 18.5307C24.2246 18.7624 23.7998 18.7112 23.373 18.2917C22.7134 17.6436 22.0652 16.984 21.4098 16.3327C20.7335 15.662 20.0548 15.6661 19.3736 16.3452C18.3543 17.3639 17.3339 18.3853 16.3125 19.4095C15.6748 20.0503 15.6748 20.7475 16.3125 21.3924C16.9502 22.0374 17.6025 22.6793 18.2433 23.3274C18.7286 23.818 18.7703 24.2177 18.4927 24.847C18.1052 25.7251 17.7385 26.6122 17.3927 27.5084C17.1485 28.144 16.8249 28.408 16.1403 28.4101C15.2281 28.4101 14.317 28.4101 13.4058 28.4101C12.4947 28.4101 12 28.8871 12 29.793C12 31.2632 12 32.7341 12 34.2057C12 35.0949 12.4895 35.5885 13.3714 35.5917C14.2961 35.5917 15.2197 35.5917 16.1444 35.5917C16.8114 35.5917 17.1495 35.8693 17.3969 36.4986C17.7371 37.3816 18.0993 38.2565 18.4833 39.1235C18.7797 39.7893 18.738 40.1797 18.2151 40.7057C17.5701 41.3538 16.9209 41.9936 16.2791 42.6417C15.6811 43.2481 15.6831 43.9578 16.2874 44.5663C17.3311 45.6183 18.3807 46.6675 19.4362 47.714C20.0447 48.3183 20.7471 48.3193 21.3597 47.714C22.0099 47.0753 22.6486 46.425 23.2947 45.7821C23.8165 45.2603 24.2089 45.2206 24.8779 45.517C25.7428 45.9025 26.6178 46.2647 27.5028 46.6035C28.1467 46.853 28.4035 47.1681 28.4056 47.8559C28.4056 48.7796 28.4056 49.7043 28.4056 50.6279C28.4056 51.4931 28.9003 51.9972 29.753 51.9993C31.2503 52.0035 32.7462 52.0035 34.2408 51.9993C35.0757 51.9993 35.5829 51.4963 35.5882 50.6665C35.5934 49.7272 35.5882 48.7879 35.5882 47.8549C35.5882 47.2026 35.8658 46.8488 36.4575 46.6192C37.3621 46.2671 38.2614 45.8962 39.1555 45.5066C39.7629 45.2394 40.1772 45.2739 40.6469 45.7362C41.3054 46.3843 41.9525 47.0439 42.609 47.6942C43.2498 48.3298 43.9438 48.3287 44.592 47.6869C45.6301 46.6585 46.664 45.627 47.6938 44.5924C48.3336 43.9474 48.3325 43.2544 47.6938 42.6094C47.0551 41.9644 46.4017 41.3267 45.7598 40.6765C45.2725 40.1839 45.2307 39.7873 45.5073 39.159C45.8987 38.2677 46.2671 37.3659 46.6198 36.46C46.8557 35.8547 47.1886 35.5948 47.8535 35.5927C48.6999 35.5927 49.5474 35.5625 50.3917 35.6011C51.1567 35.6366 51.7036 35.3777 52 34.6555V29.3432C51.7036 28.6199 51.1577 28.3611 50.3927 28.3966ZM31.9812 42.4674C29.9114 42.4637 27.8892 41.8465 26.17 40.6939C24.4508 39.5413 23.1119 37.905 22.3224 35.9917C21.5329 34.0784 21.3283 31.974 21.7343 29.9444C22.1404 27.9148 23.139 26.0511 24.6038 24.5889C26.0687 23.1266 27.9342 22.1314 29.9645 21.729C31.9948 21.3265 34.0988 21.535 36.0107 22.3279C37.9226 23.1208 39.5565 24.4627 40.7061 26.1839C41.8556 27.9051 42.4691 29.9285 42.4691 31.9983C42.4642 34.7766 41.357 37.4394 39.3907 39.4022C37.4243 41.365 34.7595 42.4674 31.9812 42.4674Z" fill="white"/>
<path d="M34.5549 28.9581C33.4215 30.0895 32.2891 31.2205 31.1578 32.3511C31.0586 32.4503 30.9542 32.5452 30.8447 32.6517C30.8176 32.638 30.7915 32.6227 30.7664 32.6058C30.3134 32.157 29.8626 31.7051 29.4096 31.2594C28.8596 30.7198 28.1572 30.6812 27.6719 31.1551C27.1866 31.6289 27.2033 32.3605 27.7575 32.9199C28.4644 33.6317 29.173 34.3404 29.8834 35.0459C30.5096 35.6721 31.1567 35.6721 31.7902 35.0375C33.2646 33.568 34.7372 32.0958 36.2081 30.6207C36.7957 30.031 36.8479 29.3297 36.3511 28.8266C35.8543 28.3236 35.1394 28.3757 34.5549 28.9581Z" fill="white"/>
</g>
<defs>
<clipPath id="clip0_20:1646">
<rect width="40" height="40.001" fill="white" transform="translate(12 11.9995)"/>
</clipPath>
</defs>
</svg>
