<svg width="64" height="64" viewBox="0 0 64 64" fill="none" xmlns="http://www.w3.org/2000/svg">
<rect width="64" height="64" rx="32" fill="#DAA92F"/>
<g clip-path="url(#clip0_20:1652)">
<path d="M52 42.8312L46.8397 38.7048V41.4351H46.4904C40.3021 41.4351 34.1126 41.4538 27.9231 41.427C25.5383 41.4121 23.242 40.5218 21.4704 38.9253C19.6987 37.3288 18.5751 35.1372 18.3129 32.7668C17.5887 26.4073 23.1424 21.0492 29.4647 22.0167C31.3703 22.3019 33.1488 23.1454 34.5753 24.4407C36.0019 25.736 37.0126 27.4251 37.4798 29.2945C37.947 31.1639 37.8497 33.1298 37.2002 34.9439C36.5508 36.7581 35.3783 38.3391 33.8308 39.4872C33.605 39.6561 33.3756 39.8167 33.0612 40.0438C34.4468 40.0438 35.7205 40.0333 36.9955 40.0508C37.1154 40.0572 37.2351 40.0333 37.3434 39.9812C37.4517 39.9291 37.5451 39.8505 37.6149 39.7527C38.953 38.1709 39.8737 36.2792 40.2928 34.2502C40.3627 33.9125 40.507 33.7658 40.8319 33.6959C41.4385 33.5644 42.0369 33.3932 42.6354 33.2395V30.118C41.9962 29.9573 41.3791 29.7943 40.7574 29.6523C40.5047 29.5952 40.3661 29.4881 40.3138 29.2145C40.0089 27.6129 39.3789 26.0908 38.4625 24.7424C38.296 24.4944 38.31 24.3232 38.4625 24.0845C38.8118 23.5396 39.1296 22.9738 39.4149 22.4941L37.2027 20.2726C36.6846 20.5811 36.1176 20.9036 35.5727 21.2529C35.49 21.32 35.3865 21.3559 35.2801 21.3544C35.1737 21.3529 35.0712 21.3141 34.9905 21.2448C33.6296 20.3215 32.0955 19.6838 30.4811 19.3702C30.2087 19.3178 30.1015 19.1804 30.0433 18.9266C29.899 18.2956 29.7313 17.6703 29.5776 17.0486H26.4549C26.2931 17.6924 26.1266 18.3212 25.981 18.9569C25.9263 19.1967 25.8192 19.3248 25.5665 19.3726C23.9509 19.6792 22.4156 20.3149 21.056 21.2401C20.8231 21.3961 20.6601 21.3775 20.4366 21.2401C19.887 20.8908 19.32 20.5718 18.7949 20.2609L16.5897 22.4731C16.9029 23.0006 17.2219 23.5687 17.5724 24.1171C17.6425 24.2049 17.68 24.3142 17.6785 24.4266C17.677 24.5389 17.6366 24.6472 17.5642 24.7331C16.6479 26.0811 16.0168 27.6021 15.7095 29.2029C15.6547 29.4986 15.5057 29.6057 15.2367 29.6686C14.6162 29.8083 14.0026 29.9736 13.3738 30.1343V33.2325C13.9746 33.3874 14.5708 33.5597 15.1762 33.689C15.501 33.7588 15.6338 33.9067 15.7269 34.235C15.9854 35.1537 16.2066 36.1049 16.6304 36.9502C18.9858 41.6331 22.8129 44.1352 28.0675 44.2085C34.1394 44.2924 40.2125 44.2272 46.2855 44.2272H46.8549V46.9517L52 42.8312Z" fill="white"/>
<path d="M36.3772 31.7191C36.3853 30.0638 35.9023 28.4433 34.9893 27.0626C34.0764 25.6818 32.7745 24.6028 31.2483 23.9619C29.7221 23.3211 28.0401 23.1473 26.4151 23.4624C24.79 23.7775 23.295 24.5674 22.1189 25.7322C20.9428 26.8971 20.1386 28.3845 19.8079 30.0064C19.4772 31.6283 19.6349 33.3119 20.261 34.8442C20.8872 36.3765 21.9537 37.6887 23.3256 38.6149C24.6975 39.541 26.3133 40.0396 27.9686 40.0474C30.1869 40.0542 32.3175 39.1815 33.8936 37.6205C35.4697 36.0595 36.3628 33.9373 36.3772 31.7191ZM21.5008 29.0726L22.799 29.5919L22.4788 30.7806L21.1049 30.5687C21.2353 30.0704 21.3588 29.6058 21.5008 29.0726ZM21.0199 32.1312L22.4078 32.023C22.4812 32.4293 22.5498 32.8182 22.6279 33.2501L21.3005 33.6425C21.2051 33.1279 21.1154 32.6505 21.0199 32.1312ZM22.7932 36.3414L21.8967 35.0851L23.1041 34.397C23.3369 34.7265 23.5698 35.049 23.8329 35.403L22.7932 36.3414ZM30.9876 35.6428C30.3659 35.0199 29.7581 34.4191 29.162 33.8067C29.098 33.7231 29.008 33.6631 28.9062 33.6364C28.8043 33.6096 28.6965 33.6175 28.5996 33.6588C28.1104 33.7993 27.5865 33.7545 27.1282 33.533C26.6699 33.3114 26.3094 32.9287 26.1155 32.458C25.9217 31.9874 25.9082 31.4617 26.0776 30.9817C26.2469 30.5017 26.5873 30.101 27.0336 29.8562C27.2746 29.7269 27.3154 29.5826 27.3142 29.3485C27.3072 27.8244 27.3142 26.3004 27.3142 24.7413H28.7114V25.1896C28.7114 26.5693 28.7172 27.949 28.7114 29.3287C28.7114 29.5837 28.7615 29.7328 29.0141 29.8667C29.4394 30.082 29.7735 30.4425 29.9559 30.8829C30.1383 31.3233 30.157 31.8145 30.0084 32.2675C29.9666 32.3641 29.9581 32.4719 29.9843 32.5739C30.0104 32.6759 30.0697 32.7663 30.1528 32.831C30.7652 33.4271 31.3649 34.0361 31.9552 34.6252L30.9876 35.6428Z" fill="white"/>
<path d="M18.257 41.6236C18.117 41.5083 17.9412 41.4453 17.7599 41.4455C15.947 41.4338 14.1342 41.4373 12.3202 41.4455C12.2107 41.4455 12.1001 41.4641 12 41.4734V44.2247H21.8513C21.8085 44.1784 21.7618 44.1359 21.7115 44.0978C20.4443 43.4479 19.2802 42.6142 18.257 41.6236Z" fill="white"/>
<path d="M28.0256 30.982C27.8871 30.9777 27.7504 31.0146 27.6329 31.0881C27.5154 31.1617 27.4225 31.2685 27.3659 31.395C27.3093 31.5215 27.2916 31.662 27.3151 31.7986C27.3386 31.9352 27.4021 32.0617 27.4977 32.1621C27.5933 32.2624 27.7166 32.3321 27.8519 32.3622C27.9872 32.3923 28.1284 32.3815 28.2575 32.3311C28.3866 32.2807 28.4978 32.1931 28.577 32.0793C28.6561 31.9656 28.6997 31.8308 28.7021 31.6923C28.7052 31.5088 28.636 31.3314 28.5094 31.1985C28.3829 31.0656 28.2091 30.9878 28.0256 30.982Z" fill="white"/>
</g>
<defs>
<clipPath id="clip0_20:1652">
<rect width="40" height="29.9031" fill="white" transform="translate(12 17.0486)"/>
</clipPath>
</defs>
</svg>
