<svg width="40" height="40" viewBox="0 0 40 40" fill="none" xmlns="http://www.w3.org/2000/svg">
<path d="M16.8899 17.5562L19.5724 15.0962C20.3065 14.4227 20.8227 13.5453 21.0548 12.5765C21.2869 11.6077 21.2242 10.5916 20.8749 9.65865L19.7287 6.59865C19.3009 5.45692 18.4538 4.52128 17.3601 3.98244C16.2664 3.44359 15.0084 3.34211 13.8424 3.69865C9.55245 5.01115 6.25495 8.99865 7.26995 13.7349C7.93745 16.8499 9.2137 20.7599 11.6349 24.9212C13.6638 28.4258 16.2161 31.5999 19.2037 34.3337C22.7912 37.5987 27.9162 36.7824 31.2137 33.7087C32.0976 32.8845 32.634 31.7543 32.7134 30.5484C32.7928 29.3424 32.4094 28.1516 31.6412 27.2187L29.5399 24.6662C28.9067 23.8964 28.0578 23.3336 27.1022 23.0498C26.1467 22.766 25.1282 22.7743 24.1774 23.0737L20.7074 24.1674C20.5737 24.0299 20.4199 23.8662 20.2499 23.6774C19.5365 22.8881 18.9054 22.0283 18.3662 21.1112C17.8417 20.1855 17.4128 19.2088 17.0862 18.1962C17.0164 17.9842 16.951 17.7708 16.8899 17.5562Z" fill="#DAA92F"/>
</svg>
