<svg width="56" height="56" viewBox="0 0 56 56" fill="none" xmlns="http://www.w3.org/2000/svg">
<ellipse cx="22.9632" cy="23.7382" rx="22.9632" ry="22.7392" fill="#FFF3D4"/>
<g opacity="0.7">
<path d="M46.3725 25.0391H21.6184C20.5245 25.0401 19.4758 25.4709 18.7023 26.2369C17.9288 27.0028 17.4938 28.0413 17.4927 29.1245V37.2954C17.4934 38.0175 17.7834 38.7098 18.2991 39.2205C18.8148 39.7311 19.5139 40.0183 20.2432 40.019V49.5517C20.2439 50.2738 20.5339 50.9662 21.0496 51.4768C21.5652 51.9874 22.2644 52.2746 22.9936 52.2753H28.4945C29.2238 52.2746 29.9229 51.9874 30.4386 51.4768C30.9542 50.9662 31.2443 50.2738 31.245 49.5517V33.2099H28.4945V49.5517H22.9936V37.2954H20.2432V29.1245C20.2432 28.7633 20.3881 28.4169 20.646 28.1616C20.9039 27.9062 21.2537 27.7627 21.6184 27.7627H46.3725C46.7372 27.7627 47.087 27.9062 47.3449 28.1616C47.6028 28.4169 47.7477 28.7633 47.7477 29.1245V37.2954H44.9973V49.5517H39.4964V33.2099H36.7459V49.5517C36.7466 50.2738 37.0366 50.9662 37.5523 51.4768C38.0679 51.9874 38.7671 52.2746 39.4964 52.2753H44.9973C45.7265 52.2746 46.4257 51.9874 46.9413 51.4768C47.457 50.9662 47.747 50.2738 47.7477 49.5517V40.019C48.477 40.0183 49.1761 39.7311 49.6918 39.2205C50.2074 38.7098 50.4974 38.0175 50.4982 37.2954V29.1245C50.4971 28.0413 50.0621 27.0028 49.2886 26.2369C48.5151 25.4709 47.4664 25.0401 46.3725 25.0391Z" fill="#201907"/>
<path d="M25.745 23.6772C24.657 23.6772 23.5935 23.3577 22.6889 22.7592C21.7842 22.1606 21.0792 21.3099 20.6628 20.3145C20.2465 19.3192 20.1375 18.2239 20.3498 17.1673C20.562 16.1106 21.0859 15.14 21.8553 14.3782C22.6246 13.6164 23.6047 13.0976 24.6718 12.8874C25.7389 12.6772 26.8449 12.7851 27.8501 13.1974C28.8553 13.6097 29.7144 14.3078 30.3188 15.2036C30.9233 16.0994 31.2459 17.1526 31.2459 18.23C31.2445 19.6742 30.6644 21.0589 29.6331 22.0802C28.6018 23.1014 27.2035 23.6758 25.745 23.6772ZM25.745 15.5063C25.201 15.5063 24.6692 15.6661 24.2169 15.9654C23.7646 16.2646 23.4121 16.69 23.2039 17.1877C22.9957 17.6854 22.9413 18.233 23.0474 18.7613C23.1535 19.2896 23.4155 19.775 23.8001 20.1559C24.1848 20.5368 24.6749 20.7962 25.2084 20.9013C25.7419 21.0063 26.295 20.9524 26.7975 20.7463C27.3001 20.5401 27.7297 20.191 28.0319 19.7431C28.3341 19.2952 28.4955 18.7686 28.4955 18.23C28.4947 17.5078 28.2047 16.8155 27.6891 16.3049C27.1734 15.7942 26.4742 15.5071 25.745 15.5063Z" fill="#201907"/>
<path d="M42.2477 23.6772C41.1597 23.6772 40.0962 23.3577 39.1916 22.7592C38.2869 22.1606 37.5819 21.3099 37.1655 20.3145C36.7492 19.3192 36.6402 18.2239 36.8525 17.1673C37.0648 16.1106 37.5887 15.14 38.358 14.3782C39.1273 13.6164 40.1075 13.0976 41.1745 12.8874C42.2416 12.6772 43.3477 12.7851 44.3528 13.1974C45.358 13.6097 46.2171 14.3078 46.8215 15.2036C47.426 16.0994 47.7486 17.1526 47.7486 18.23C47.7472 19.6742 47.1671 21.0589 46.1358 22.0802C45.1045 23.1014 43.7062 23.6758 42.2477 23.6772ZM42.2477 15.5063C41.7037 15.5063 41.1719 15.6661 40.7196 15.9654C40.2673 16.2646 39.9148 16.69 39.7066 17.1877C39.4984 17.6854 39.444 18.233 39.5501 18.7613C39.6562 19.2896 39.9182 19.775 40.3028 20.1559C40.6875 20.5368 41.1776 20.7962 41.7111 20.9013C42.2447 21.0063 42.7977 20.9524 43.3003 20.7463C43.8028 20.5401 44.2324 20.191 44.5346 19.7431C44.8369 19.2952 44.9982 18.7686 44.9982 18.23C44.9974 17.5078 44.7074 16.8155 44.1918 16.3049C43.6761 15.7942 42.977 15.5071 42.2477 15.5063Z" fill="#201907"/>
</g>
</svg>
