<svg width="56" height="55" viewBox="0 0 56 55" fill="none" xmlns="http://www.w3.org/2000/svg">
<circle opacity="0.2" cx="22.9684" cy="23.4365" r="22.9594" fill="url(#paint0_linear)"/>
<g opacity="0.7">
<path d="M46.3747 24.75H21.6247C20.531 24.7511 19.4824 25.186 18.7091 25.9594C17.9357 26.7327 17.5008 27.7813 17.4997 28.875V37.125C17.5004 37.8541 17.7904 38.5532 18.306 39.0687C18.8215 39.5843 19.5206 39.8743 20.2497 39.875V49.5C20.2504 50.2291 20.5404 50.9282 21.056 51.4437C21.5715 51.9593 22.2706 52.2493 22.9997 52.25H28.4997C29.2288 52.2493 29.9279 51.9593 30.4434 51.4437C30.959 50.9282 31.249 50.2291 31.2497 49.5V33H28.4997V49.5H22.9997V37.125H20.2497V28.875C20.2497 28.5103 20.3946 28.1606 20.6524 27.9027C20.9103 27.6449 21.26 27.5 21.6247 27.5H46.3747C46.7394 27.5 47.0891 27.6449 47.347 27.9027C47.6048 28.1606 47.7497 28.5103 47.7497 28.875V37.125H44.9997V49.5H39.4997V33H36.7497V49.5C36.7504 50.2291 37.0404 50.9282 37.556 51.4437C38.0715 51.9593 38.7706 52.2493 39.4997 52.25H44.9997C45.7288 52.2493 46.4279 51.9593 46.9434 51.4437C47.459 50.9282 47.749 50.2291 47.7497 49.5V39.875C48.4788 39.8743 49.1779 39.5843 49.6934 39.0687C50.209 38.5532 50.499 37.8541 50.4997 37.125V28.875C50.4986 27.7813 50.0637 26.7327 49.2903 25.9594C48.517 25.186 47.4684 24.7511 46.3747 24.75Z" fill="#7D6C7C"/>
<path d="M25.7497 23.375C24.6619 23.375 23.5985 23.0524 22.6941 22.4481C21.7896 21.8437 21.0846 20.9848 20.6684 19.9798C20.2521 18.9748 20.1432 17.8689 20.3554 16.802C20.5676 15.7351 21.0914 14.7551 21.8606 13.9859C22.6298 13.2167 23.6098 12.6929 24.6767 12.4807C25.7436 12.2685 26.8495 12.3774 27.8545 12.7937C28.8595 13.2099 29.7184 13.9149 30.3228 14.8194C30.9271 15.7238 31.2497 16.7872 31.2497 17.875C31.2482 19.3332 30.6683 20.7313 29.6372 21.7625C28.606 22.7936 27.2079 23.3735 25.7497 23.375ZM25.7497 15.125C25.2058 15.125 24.6741 15.2863 24.2219 15.5885C23.7696 15.8906 23.4172 16.3201 23.209 16.8226C23.0009 17.3251 22.9464 17.8781 23.0525 18.4115C23.1586 18.9449 23.4206 19.435 23.8052 19.8195C24.1897 20.2041 24.6798 20.4661 25.2132 20.5722C25.7466 20.6783 26.2996 20.6238 26.8021 20.4157C27.3046 20.2075 27.7341 19.8551 28.0362 19.4028C28.3384 18.9506 28.4997 18.4189 28.4997 17.875C28.499 17.1459 28.209 16.4468 27.6934 15.9313C27.1779 15.4157 26.4788 15.1257 25.7497 15.125Z" fill="#7D6C7C"/>
<path d="M42.2497 23.375C41.1619 23.375 40.0985 23.0524 39.1941 22.4481C38.2896 21.8437 37.5846 20.9848 37.1684 19.9798C36.7521 18.9748 36.6432 17.8689 36.8554 16.802C37.0676 15.7351 37.5914 14.7551 38.3606 13.9859C39.1298 13.2167 40.1098 12.6929 41.1767 12.4807C42.2436 12.2685 43.3495 12.3774 44.3545 12.7937C45.3594 13.2099 46.2184 13.9149 46.8228 14.8194C47.4271 15.7238 47.7497 16.7872 47.7497 17.875C47.7482 19.3332 47.1683 20.7313 46.1372 21.7625C45.106 22.7936 43.7079 23.3735 42.2497 23.375ZM42.2497 15.125C41.7058 15.125 41.1741 15.2863 40.7219 15.5885C40.2696 15.8906 39.9172 16.3201 39.709 16.8226C39.5009 17.3251 39.4464 17.8781 39.5525 18.4115C39.6586 18.9449 39.9206 19.435 40.3052 19.8195C40.6897 20.2041 41.1798 20.4661 41.7132 20.5722C42.2466 20.6783 42.7996 20.6238 43.3021 20.4157C43.8046 20.2075 44.2341 19.8551 44.5362 19.4028C44.8384 18.9506 44.9997 18.4189 44.9997 17.875C44.999 17.1459 44.709 16.4468 44.1934 15.9313C43.6779 15.4157 42.9788 15.1257 42.2497 15.125Z" fill="#7D6C7C"/>
</g>
<defs>
<linearGradient id="paint0_linear" x1="10.7027" y1="-4.97472" x2="39.7239" y2="11.4482" gradientUnits="userSpaceOnUse">
<stop stop-color="#E7BE90"/>
<stop offset="1" stop-color="#E7BE90"/>
<stop offset="1" stop-color="#FEC253"/>
</linearGradient>
</defs>
</svg>
